<?xml version="1.0" encoding="UTF-8" standalone="no"?>
<!-- Created with Inkscape (http://www.inkscape.org/) -->

<svg
   version="1.1"
   id="svg1"
   width="791"
   height="139.52014"
   viewBox="0 0 791 139.52014"
   sodipodi:docname="logo-big-blue.svg"
   inkscape:version="1.4.3 (0d15f75, 2025-12-25)"
   inkscape:export-filename="logo-big-blue.png"
   inkscape:export-xdpi="96"
   inkscape:export-ydpi="96"
   xmlns:inkscape="http://www.inkscape.org/namespaces/inkscape"
   xmlns:sodipodi="http://sodipodi.sourceforge.net/DTD/sodipodi-0.dtd"
   xmlns:xlink="http://www.w3.org/1999/xlink"
   xmlns="http://www.w3.org/2000/svg"
   xmlns:svg="http://www.w3.org/2000/svg">
  <defs
     id="defs1" />
  <sodipodi:namedview
     id="namedview1"
     pagecolor="#505050"
     bordercolor="#eeeeee"
     borderopacity="1"
     inkscape:showpageshadow="0"
     inkscape:pageopacity="0"
     inkscape:pagecheckerboard="0"
     inkscape:deskcolor="#505050"
     inkscape:zoom="0.86572266"
     inkscape:cx="401.39876"
     inkscape:cy="76.814438"
     inkscape:window-width="1920"
     inkscape:window-height="1009"
     inkscape:window-x="-8"
     inkscape:window-y="-8"
     inkscape:window-maximized="1"
     inkscape:current-layer="g1" />
  <g
     inkscape:groupmode="layer"
     inkscape:label="Image"
     id="g1"
     transform="translate(-115,-31.402844)">
    <path
       style="fill:#0066ff;fill-opacity:1"
       d="m 855.95403,78.25 c -2.19892,-1.964904 -3.23916,-3.955358 -3.6437,-6.972076 -0.51556,-3.844599 -0.25076,-4.537493 2.96175,-7.75 C 858.30354,60.49646 859.45815,60 863.47692,60 c 3.8359,0 5.20257,0.525641 7.6,2.923077 C 873.47023,65.316381 874,66.689609 874,70.5 c 0,3.810391 -0.52977,5.183619 -2.92308,7.576923 -4.06988,4.069887 -10.67735,4.145508 -15.12289,0.173077 z"
       id="path16" />
    <path
       style="fill:#ffffff;fill-opacity:1"
       sodipodi:type="inkscape:offset"
       inkscape:radius="0"
       inkscape:original="M 257.76953 31.435547 C 257.33749 31.003516 230.60606 34.939915 222.63477 36.609375 L 219.76953 37.208984 L 225.31641 42.855469 L 230.86328 48.5 L 201.33008 78.382812 L 171.79688 108.26562 L 160.13477 96.634766 L 148.47461 85.003906 L 131.73633 101.76367 L 115 118.52148 L 115 131 L 115 143.47656 L 131.49805 127.00195 L 147.99609 110.52734 L 159.82617 122.32617 L 171.65625 134.125 L 207.24414 98.0625 C 226.81795 78.227936 243.26901 62 243.80078 62 C 244.33254 62 246.42918 63.840934 248.46094 66.089844 C 250.49269 68.338755 252.3561 69.977891 252.60156 69.732422 C 253.31925 69.014733 258.31656 31.982585 257.76953 31.435547 z "
       xlink:href="#path15"
       id="path17"
       inkscape:href="#path15"
       d="m 257.76953,31.435547 c -0.43204,-0.432031 -27.16347,3.504368 -35.13476,5.173828 l -2.86524,0.599609 5.54688,5.646485 L 230.86328,48.5 201.33008,78.382812 171.79688,108.26562 160.13477,96.634766 148.47461,85.003906 131.73633,101.76367 115,118.52148 V 131 143.47656 l 16.49805,-16.47461 16.49804,-16.47461 11.83008,11.79883 11.83008,11.79883 35.58789,-36.0625 C 226.81795,78.227936 243.26901,62 243.80078,62 c 0.53176,0 2.6284,1.840934 4.66016,4.089844 2.03175,2.248911 3.89516,3.888047 4.14062,3.642578 0.71769,-0.717689 5.715,-37.749837 5.16797,-38.296875 z" />
    <path
       style="fill:#ffffff;fill-opacity:1;stroke:#1a1a1a;paint-order:normal;stroke-linejoin:miter;stroke-miterlimit:4;stroke-linecap:butt;stroke-width:2.5;stroke-dasharray:none"
       d="m 115,130.99936 v -12.47792 l 16.73698,-16.75873 16.73698,-16.758725 11.6612,11.630827 11.66121,11.630828 L 201.32972,78.382819 230.86307,48.5 l -5.54659,-5.645273 -5.5466,-5.645273 2.86506,-0.600042 c 7.97129,-1.66946 34.7021,-5.605701 35.13414,-5.17367 0.54703,0.547038 -4.44961,37.578118 -5.1673,38.295807 -0.24546,0.245469 -2.10865,-1.39371 -4.1404,-3.642621 C 246.42962,63.840018 244.33219,62 243.80043,62 c -0.53177,0 -16.9818,16.22828 -36.55561,36.062844 L 171.65605,134.12569 159.82589,122.32634 147.99573,110.527 131.49786,127.00213 115,143.47727 Z"
       id="path15" />
    <path
       style="fill:#0066ff;fill-opacity:1"
       d="M 888,115 V 60 h 9 9 v 55 55 h -9 -9 z"
       id="path14" />
    <path
       style="fill:#0066ff;fill-opacity:1"
       d="M 854,131 V 92 h 9.5 9.5 v 39 39 h -9.5 -9.5 z"
       id="path13" />
    <path
       style="fill:#0066ff;fill-opacity:1"
       d="m 819.5,168.49725 c -5.05998,-1.78993 -11.01383,-8.08348 -12.41247,-13.12067 -0.6192,-2.23004 -1.07874,-13.32705 -1.08195,-26.12658 L 806,107 h -6 -6 V 99.5 92 h 6 6 V 81.5 71 h 9.5 9.5 V 81.5 92 l 8.75,-0.0023 8.75,-0.0023 -0.329,7.502327 L 841.84199,107 H 833.421 825 v 21.38922 c 0,26.14745 0.007,26.16467 10.41589,26.01801 L 842,154.31446 v 7.23578 c 0,5.6756 -0.34107,7.36666 -1.58179,7.84277 -2.93711,1.12708 -16.88871,0.52964 -20.91821,-0.89576 z"
       id="path12" />
    <path
       style="fill:#0066ff;fill-opacity:1"
       d="M 718,131 V 92 h 9 9 v 4.857143 4.857147 l 4.75,-4.744225 c 5.2251,-5.218739 9.66862,-6.955521 17.8185,-6.964488 11.7259,-0.0129 20.35083,5.057004 25.11794,14.764833 L 786.5,110.5 l 0.32822,29.75 0.32822,29.75 h -9.48231 -9.4823 l -0.36753,-26.75 c -0.31195,-22.70436 -0.62227,-27.22113 -2.05187,-29.86516 -2.39543,-4.43032 -7.75797,-6.71663 -14.45187,-6.16152 -6.13167,0.50849 -9.80963,2.76945 -12.82056,7.88121 -1.83517,3.11564 -2.02567,5.51761 -2.31146,29.14547 L 735.87709,170 H 726.93854 718 Z"
       id="path11" />
    <path
       style="fill:#0066ff;fill-opacity:1"
       d="M 561,115.03893 V 60 h 8.98634 8.98633 L 579.23634,92.389124 579.5,124.77825 593.85564,108.38912 608.21128,92 h 11.62935 11.62936 l -12.00555,12.25 c -6.60305,6.7375 -13.45878,13.84641 -15.23496,15.79757 l -3.22941,3.54757 15.61646,21.92423 c 8.58906,12.05832 15.83718,22.49942 16.10696,23.20243 0.37987,0.98994 -1.99453,1.2782 -10.52872,1.2782 h -11.01921 l -4.41258,-6.25 c -2.42691,-3.4375 -7.69255,-10.90601 -11.70141,-16.59669 l -7.28884,-10.34668 -4.35702,4.2761 -4.35703,4.2761 -0.27934,12.07058 L 578.5,169.5 l -8.75,0.28893 -8.75,0.28894 z"
       id="path10" />
    <path
       style="fill:#0066ff;fill-opacity:1"
       d="M 506,131 V 92 h 9 9 l 0.004,5.75 0.004,5.75 1.85544,-3.04262 C 530.16391,93.404491 537.67254,89.569969 546,90.173736 l 4.5,0.326264 0.28621,9.75 0.28621,9.75 h -7.08587 c -7.53987,0 -11.08299,1.25118 -14.59803,5.15499 C 525.53166,119.43843 525,123.31449 525,147.14922 V 170 h -9.5 -9.5 z"
       id="path9" />
    <path
       style="fill:#0066ff;fill-opacity:1"
       d="M 295,115 V 60 h 10.92128 10.92127 l 5.02316,9.75 c 12.1658,23.613954 28.99347,54.75 29.58998,54.75 0.35852,0 8.22447,-14.4 17.47989,-32 l 16.82804,-32 11.12675,-0.282831 11.12674,-0.282831 -0.25856,54.782832 L 407.5,169.5 l -9.75,0.28621 -9.75,0.28621 V 131.29261 92.512805 L 372.64691,121.5064 357.29382,150.5 l -6.39691,0.25953 -6.39691,0.25953 -15,-29.00979 -15,-29.009785 -0.26174,38.500255 L 313.97651,170 H 304.48826 295 Z"
       id="path8" />
    <path
       style="fill:#0066ff;fill-opacity:1"
       d="M 211,137.2375 V 104.47499 L 226,89.5 241,74.525007 V 122.2625 170 h -15 -15 z"
       id="path7" />
    <path
       style="fill:#0066ff;fill-opacity:1"
       d="m 163,154.34501 v -15.65499 l 2.21221,1.90499 c 1.21672,1.04775 2.99175,2.80499 3.94452,3.90499 1.69791,1.96029 1.97167,1.76205 13.78779,-9.98437 L 195,122.53126 V 146.26563 170 h -16 -16 z"
       id="path6" />
    <path
       style="fill:#0066ff;fill-opacity:1"
       d="m 115,162.2379 v -7.7621 L 130.5,139 146,123.5242 V 146.7621 170 H 130.5 115 Z"
       id="path5" />
    <path
       id="path3"
       style="fill:#0066ff;fill-opacity:1"
       d="m 673.74552,154.46186 c 2.02471,-0.84597 4.54881,-2.30847 5.60911,-3.25 2.71255,-2.40867 5.5974,-9.09904 5.62341,-13.04145 l 0.022,-3.3296 -6.75,0.66089 c -18.16402,1.77841 -22.7544,3.40846 -24.66011,8.7568 -1.21057,3.39744 0.88282,8.38565 4.29816,10.24186 3.47291,1.88749 11.29337,1.8685 15.85747,-0.0385 z M 653,170.12275 C 640.68559,166.07821 634,157.94193 634,147 c 0,-9.16537 4.40958,-16.09877 13.04021,-20.50378 C 653.22026,123.34197 661.32164,122 674.18366,122 c 10.55679,0 10.81581,-0.054 10.79438,-2.25 -0.0121,-1.2375 -0.89766,-4.17944 -1.96796,-6.53764 -2.37274,-5.22788 -6.42738,-7.21304 -14.72796,-7.21081 -6.91053,0.002 -11.89662,2.23168 -14.83591,6.63476 l -2.09366,3.13631 -7.17627,-3.32399 C 640.22932,110.62044 637,108.84925 637,108.51266 c 0,-1.97515 3.55979,-6.83544 7.63151,-10.419504 6.83533,-6.016699 15.68248,-8.51794 27.72762,-7.839074 14.08816,0.794011 22.70391,5.488866 27.9785,15.245918 2.05885,3.80852 2.17694,5.45008 2.46666,34.29132 l 0.30429,30.29132 -8.30429,-0.29132 L 686.5,169.5 l -0.5,-4.82763 -0.5,-4.82762 -3,3.16921 c -4.99574,5.27751 -10.01832,7.29463 -19,7.63063 -4.4,0.16459 -9.125,-0.0702 -10.5,-0.52184 z" />
    <path
       id="path1"
       style="fill:#0066ff;fill-opacity:1"
       d="m 474.97804,121 c -0.0471,-3.21538 -3.90458,-9.81151 -7.04612,-12.04847 -7.16255,-5.1002 -19.86506,-3.15798 -24.69475,3.77583 -1.96708,2.82406 -4.34643,8.83004 -3.73885,9.43763 0.18426,0.18425 8.24751,0.33501 17.91835,0.33501 14.97272,0 17.58007,-0.22271 17.56137,-1.5 z m -29.35405,48.36334 c -11.22963,-3.44845 -20.41108,-12.55961 -23.75691,-23.57505 -2.76892,-9.11606 -2.28369,-24.27136 1.05623,-32.98992 3.026,-7.89908 9.6893,-14.990037 17.87084,-19.017796 6.28532,-3.094251 7.26135,-3.277474 17.18482,-3.225994 12.32401,0.06393 17.14188,1.750324 24.57501,8.601946 7.7504,7.144064 10.94513,15.609754 11.3565,30.093474 l 0.22011,7.75 H 466.54624 438.9619 l 0.64163,2.75 c 2.30634,9.88481 9.23965,15.25 19.70723,15.25 6.93217,0 11.34705,-1.85298 16.11803,-6.76494 l 3.44131,-3.54301 7.09202,4.28506 7.09202,4.28506 -2.37857,3.11892 c -3.85762,5.05833 -11.50608,10.28189 -18.33974,12.52522 -7.61708,2.50051 -19.40087,2.70213 -26.71184,0.45703 z" />
  </g>
</svg>
